<svg width="44" height="45" viewBox="0 0 44 45" fill="none" xmlns="http://www.w3.org/2000/svg">
<path fill-rule="evenodd" clip-rule="evenodd" d="M33.934 19.1458C33.934 27.647 27.0424 34.5385 18.5413 34.5385C10.0401 34.5385 3.14856 27.647 3.14856 19.1458C3.14856 10.6447 10.0401 3.75314 18.5413 3.75314C27.0424 3.75314 33.934 10.6447 33.934 19.1458ZM29.9162 33.6003C26.7862 36.0668 22.8356 37.5385 18.5413 37.5385C8.38325 37.5385 0.14856 29.3039 0.14856 19.1458C0.14856 8.98784 8.38325 0.753143 18.5413 0.753143C28.6993 0.753143 36.934 8.98784 36.934 19.1458C36.934 23.929 35.1082 28.2857 32.1155 31.557L43.1565 42.598L41.0352 44.7193L29.9162 33.6003Z" fill="white"/>
</svg>
