<svg xmlns="http://www.w3.org/2000/svg" width="263" height="31" viewBox="0 0 263 31">
  <g fill="#FFF" fill-rule="evenodd">
    <path d="M1.72243828,30.1537263 L0.000940966011,29.4282415 C11.2690089,25.9626637 22.9369875,20.2302987 22.4086351,10.9829553 C25.9104401,12.3421807 28.460458,14.1093148 30.1786619,16.2763596 C30.5028247,16.6852093 30.4266064,17.2836637 30.0078766,17.5955939 C24.1931771,21.9080411 14.8658515,26.7676601 1.72243828,30.1537263"/>
    <path d="M7.55595707 12.7053936C13.3697156 8.39200537 22.6979821 3.5323864 35.8404544.146790698L37.5619517.872275492C26.2938837 4.33832379 14.6259052 10.0697478 15.1542576 19.3180322 11.6524526 17.9578658 9.10290519 16.1907317 7.38423077 14.0246279 7.0595975 13.6148372 7.13581574 13.0163828 7.55595707 12.7053936M132.866283 6.25648301L104.750218 6.25648301 104.750218 23.8986547 108.602063 23.8986547 108.602063 10.1205599 119.569962 10.1205599 119.569962 23.8986547 123.46368 23.8986547 123.46368 10.1205599 132.971671 10.1205599C133.83783 10.1205599 134.515796 10.782059 134.515796 11.6256351L134.515796 23.9005367 138.376109 23.9005367 138.376109 11.6256351C138.376109 8.66488551 135.904662 6.25648301 132.866283 6.25648301"/>
    <polygon points="92.996 23.901 96.852 23.901 96.852 6.258 92.996 6.258"/>
    <path d="M80.3928426 13.1349445L57.66522 13.1349445C56.8588122 13.1349445 56.1243882 12.4169875 56.1243882 11.6298694 56.1243882 10.811229 56.8296422 10.118678 57.66522 10.118678L86.0160555 10.118678 86.0160555 6.25742397 57.6929785 6.25742397C54.6400143 6.25742397 52.155864 8.66676744 52.155864 11.6298694 52.155864 14.5882665 54.6400143 16.9966691 57.6929785 16.9966691L80.5081109 16.9966691C81.3719177 16.9966691 82.0480018 17.6595796 82.0480018 18.506449 82.0480018 19.3250894 81.3286333 20.0430465 80.5081109 20.0430465L52.155864 20.0430465 52.155864 23.9005367 80.3928426 23.9005367C83.4420429 23.9005367 86.0169964 21.4432039 86.0169964 18.5342075 86.0169964 15.6073327 83.4420429 13.1349445 80.3928426 13.1349445M225.813494 18.5304436C225.813494 19.3472021 225.107769 20.0383417 224.271721 20.0383417L205.401118 20.0383417C204.59424 20.0383417 203.860757 19.3199141 203.860757 18.5304436L203.860757 11.6256351C203.860757 10.9791914 204.739148 10.1205599 205.401118 10.1205599L224.271721 10.1205599C225.078599 10.1205599 225.813494 10.838517 225.813494 11.6256351L225.813494 18.5304436zM224.169626 6.25648301L205.505565 6.25648301C202.468597 6.25648301 199.99668 8.66488551 199.99668 11.6256351L199.99668 18.5304436C199.99668 21.4916637 202.468597 23.9005367 205.505565 23.9005367L224.169626 23.9005367C227.206594 23.9005367 229.67663 21.4916637 229.67663 18.5304436L229.67663 11.6256351C229.67663 8.66488551 227.206594 6.25648301 224.169626 6.25648301zM257.260578 6.25648301L236.808682 6.25648301 236.808682 23.9005367 240.663349 23.9005367 240.663349 10.1205599 257.241288 10.1205599C258.047225 10.1205599 258.780708 10.838517 258.780708 11.6256351L258.780708 23.9005367 262.627377 23.9005367 262.627377 11.6256351C262.627377 8.61548479 260.269317 6.25648301 257.260578 6.25648301"/>
    <polyline points="180.846 6.256 176.986 6.256 176.986 23.901 196.339 23.901 196.339 20.046 180.846 20.046 180.846 6.256"/>
    <path d="M167.242594,13.1302397 L149.670524,13.1302397 L149.670524,10.1205599 L167.242594,10.1205599 C168.106401,10.1205599 168.783896,10.782059 168.783896,11.6256351 C168.783896,12.4136941 168.049002,13.1302397 167.242594,13.1302397 Z M167.242594,6.25648301 L145.815386,6.25648301 L145.815386,23.9005367 L149.670524,23.9005367 L149.670524,16.9952576 L167.242594,16.9952576 C170.279562,16.9952576 172.725603,14.5986172 172.725603,11.6533936 C172.725603,8.67664758 170.279562,6.25648301 167.242594,6.25648301 Z"/>
  </g>
</svg>
